<svg id="Layer_1" data-name="Layer 1" xmlns="http://www.w3.org/2000/svg" viewBox="0 0 1184.34 406.14"><defs><style>.cls-1{fill:#003893;}.cls-2{fill:#afbcdb;}</style></defs><path class="cls-1" d="M0,327.22q57-3.32,114.08-6,57-2.37,114.12-4.08,114.12-3,228.29-3.28,114.15.32,228.29,3.27,57.06,1.71,114.11,4.08,57.06,2.65,114.08,6-57-2-114.08-3.3-57-1.6-114.11-2.55-114.13-2.33-228.29-2-114.17-.32-228.29,2-57.07.94-114.12,2.55Q57,325.23,0,327.22Z"/><path class="cls-1" d="M881.13,397.72c4.77,2.09,82.18,33.08,137.57-51.19,57.16-87,29.23-193.21,89-284.18,26.91-40.93,52.29-57,72.19-62.3-10.91-.5-64.53,1.22-109.65,69.86-55.79,84.87-54.06,196.71-98.51,275.24C939.14,402.77,884.86,399,881.13,397.72Z"/><path class="cls-2" d="M1049.21,327.22q3.55-3.29,7.41-7C1109.9,268,1120.55,180,1132.7,118.14,1142.4,69,1174,25.22,1184.34,16.92c-20.5,5.37-41.95,24.38-62.08,55-28.15,42.82-35.45,89.26-43.14,138.35C1073.05,249.28,1066.79,289.22,1049.21,327.22Z"/><path class="cls-2" d="M868.29,378.76s10.23,1.7,16.69,2c2.68.2,41.29,2.46,67.82-37.9,1.29-2,2.6-4.12,3.84-6.32,10.76-19.06,18.73-40.38,25.48-63.33C940.84,363.76,868.29,378.76,868.29,378.76Z"/><path class="cls-1" d="M255.56,289.77H215.44V159L144.85,283.19a17.34,17.34,0,0,1-7.27,7.2,21.31,21.31,0,0,1-10,2.45,20.1,20.1,0,0,1-9.72-2.45,17.52,17.52,0,0,1-7.12-7.2L39.82,159V289.77H0V87.19A19.81,19.81,0,0,1,4.06,74.94a19.61,19.61,0,0,1,10.64-7.2,21.33,21.33,0,0,1,12.63.85,19.14,19.14,0,0,1,5.44,3.21,18.74,18.74,0,0,1,4.13,5l90.65,157.56L218.2,76.78a19.47,19.47,0,0,1,9.72-8.27,20.77,20.77,0,0,1,12.94-.77,20,20,0,0,1,10.57,7.2,19.57,19.57,0,0,1,4.13,12.25Z"/><path class="cls-1" d="M515.28,162.07a81.06,81.06,0,0,1-3.37,24.35,68.15,68.15,0,0,1-9.11,18.91,64.1,64.1,0,0,1-13.24,14,77.79,77.79,0,0,1-32.23,14.85,79.73,79.73,0,0,1-15.7,1.68h-90V196.06h90a45.87,45.87,0,0,0,13.86-3.14,33,33,0,0,0,10.64-6.81A29.6,29.6,0,0,0,473,175.78a36.38,36.38,0,0,0,2.45-13.71V144a52.55,52.55,0,0,0-3.21-13.78,32.73,32.73,0,0,0-6.67-10.72,29.84,29.84,0,0,0-10.18-7A35,35,0,0,0,441.63,110H351.91q-8,0-12.11,4.13t-4.13,11.94V289.77H295.86V126.08q0-15.3,5.59-26a52.74,52.74,0,0,1,13.93-17.3,55.07,55.07,0,0,1,18.15-9.57,62.35,62.35,0,0,1,18.07-3h90a78.89,78.89,0,0,1,24.2,3.44,70.09,70.09,0,0,1,18.9,9.19,63.1,63.1,0,0,1,13.94,13.24,82.07,82.07,0,0,1,9.49,15.7,75.36,75.36,0,0,1,5.44,16.54A79.64,79.64,0,0,1,515.28,144Z"/><path class="cls-1" d="M768.7,272.78a19.66,19.66,0,0,1-1.61,8,20.49,20.49,0,0,1-4.29,6.36,19.28,19.28,0,0,1-6.35,4.2,19.93,19.93,0,0,1-7.81,1.54,21.46,21.46,0,0,1-7.43-1.38,17.42,17.42,0,0,1-6.66-4.44L589.09,135.12V289.77H549.28V87.19a19,19,0,0,1,3.44-11.1,21.38,21.38,0,0,1,8.81-7.43,20.14,20.14,0,0,1,11.63-1.14,18.77,18.77,0,0,1,10.26,5.59L728.89,224.85V70.2H768.7Z"/><path class="cls-1" d="M1002.84,82.15a20.79,20.79,0,0,0-7.44-8.65,19.17,19.17,0,0,0-10.81-3.29H804.83V110H939.72L808,256.55a19.59,19.59,0,0,0-4.8,10.12,17.73,17.73,0,0,0,1.59,11.17,19.81,19.81,0,0,0,7.44,8.62A18.78,18.78,0,0,0,823,289.79H954.43c5-8.69,9.8-18,14.31-27.84l5.32-12H867.91L999.3,103.41a18.06,18.06,0,0,0,4.88-10A20.09,20.09,0,0,0,1002.84,82.15Z"/><path class="cls-1" d="M40.38,349.57a3,3,0,0,0-1.76.43,4.21,4.21,0,0,0-1.19,1.51L21.57,381.27,5.71,351.51A4,4,0,0,0,4.49,350a3.23,3.23,0,0,0-1.79-.43,2.64,2.64,0,0,0-2,.72,2.76,2.76,0,0,0-.72,2V392a2.85,2.85,0,0,0,.69,2,2.52,2.52,0,0,0,2,.76,2.5,2.5,0,0,0,2-.76,2.93,2.93,0,0,0,.66-2V360.83L19,386.3a3.93,3.93,0,0,0,1,1.19,2.38,2.38,0,0,0,1.48.44,2.4,2.4,0,0,0,1.47-.4,4.56,4.56,0,0,0,1-1.23l13.69-25.61V392a2.93,2.93,0,0,0,.66,2,2.95,2.95,0,0,0,4,0,2.88,2.88,0,0,0,.66-2V352.33a2.83,2.83,0,0,0-.69-2A2.53,2.53,0,0,0,40.38,349.57Z"/><path class="cls-1" d="M55.82,349.94a3.91,3.91,0,0,0-2.67.85,3.13,3.13,0,0,0-1,2.48,3.19,3.19,0,0,0,1,2.42,3.79,3.79,0,0,0,2.67.91,3.73,3.73,0,0,0,2.73-.91,3.26,3.26,0,0,0,.91-2.42,3.2,3.2,0,0,0-.91-2.48A3.85,3.85,0,0,0,55.82,349.94Z"/><path class="cls-1" d="M55.82,363.38a2.74,2.74,0,0,0-2.07.78,3.22,3.22,0,0,0-.75,2.3v25.05a3.21,3.21,0,0,0,.75,2.26,2.65,2.65,0,0,0,2.07.82,2.72,2.72,0,0,0,2.17-.82,3.3,3.3,0,0,0,.72-2.26V366.46a3.22,3.22,0,0,0-.75-2.3A2.86,2.86,0,0,0,55.82,363.38Z"/><path class="cls-1" d="M80.69,389.88c-.29,0-.58.07-.88.09s-.62,0-1,0A4.74,4.74,0,0,1,75,388.4a7.32,7.32,0,0,1-1.36-4.86V352.45a2.82,2.82,0,0,0-.75-2.16,2.91,2.91,0,0,0-2.13-.72,2.58,2.58,0,0,0-2.83,2.88V384q0,5.26,2.45,8.07t7.16,2.79c.38,0,.75,0,1.13,0s.75-.05,1.13-.09a2.73,2.73,0,0,0,1.73-.85A2.92,2.92,0,0,0,82,392a3.31,3.31,0,0,0-.31-1.75A1,1,0,0,0,80.69,389.88Z"/><path class="cls-1" d="M98.54,378.41l11.6-11.26a2.56,2.56,0,0,0,.89-1.79,2,2,0,0,0-.63-1.51,2.55,2.55,0,0,0-1.83-.6,3.39,3.39,0,0,0-1.94.51,11.34,11.34,0,0,0-1.7,1.44l-12.31,12H92.5V352.45a2.86,2.86,0,0,0-.75-2.16,3,3,0,0,0-2.14-.72,2.82,2.82,0,0,0-2.07.72,2.87,2.87,0,0,0-.76,2.16v39.31a3,3,0,0,0,.76,2.2,2.8,2.8,0,0,0,2.07.76c1.93,0,2.89-1,2.89-3V380.08h.12l13.32,12.56a9.32,9.32,0,0,0,1.79,1.57,3.67,3.67,0,0,0,2,.51,2.54,2.54,0,0,0,1.73-.6,2.11,2.11,0,0,0,.68-1.54,2.44,2.44,0,0,0-.84-1.82Z"/><path class="cls-1" d="M121.51,349.94a3.91,3.91,0,0,0-2.67.85,3.1,3.1,0,0,0-1,2.48,3.15,3.15,0,0,0,1,2.42,3.79,3.79,0,0,0,2.67.91,3.75,3.75,0,0,0,2.73-.91,3.3,3.3,0,0,0,.91-2.42,3.24,3.24,0,0,0-.91-2.48A3.87,3.87,0,0,0,121.51,349.94Z"/><path class="cls-1" d="M121.51,363.38a2.74,2.74,0,0,0-2.07.78,3.18,3.18,0,0,0-.76,2.3v25.05a3.17,3.17,0,0,0,.76,2.26,2.65,2.65,0,0,0,2.07.82,2.71,2.71,0,0,0,2.16-.82,3.25,3.25,0,0,0,.73-2.26V366.46a3.18,3.18,0,0,0-.76-2.3A2.82,2.82,0,0,0,121.51,363.38Z"/><path class="cls-1" d="M155.67,364.45a12.49,12.49,0,0,0-6.09-1.32,12.82,12.82,0,0,0-6.81,1.82,10,10,0,0,0-3.62,4.15v-3a2.89,2.89,0,0,0-.72-2.16,2.72,2.72,0,0,0-2-.73,2.83,2.83,0,0,0-2.07.73,2.86,2.86,0,0,0-.75,2.16v25.62a3,3,0,0,0,.75,2.2,2.8,2.8,0,0,0,2.07.76c1.93,0,2.89-1,2.89-3V376.94a9.16,9.16,0,0,1,2.42-6.68,8.56,8.56,0,0,1,6.44-2.49q3.45,0,5,1.89t1.57,6v16.14a3,3,0,0,0,.75,2.2,2.93,2.93,0,0,0,2.14.76,2.78,2.78,0,0,0,2.1-.76,3.06,3.06,0,0,0,.73-2.2V375.31a17,17,0,0,0-1.2-6.85A8.23,8.23,0,0,0,155.67,364.45Z"/><path class="cls-1" d="M194.54,363.25a2.91,2.91,0,0,0-2.13.73,2.86,2.86,0,0,0-.75,2.16v2.77a9.35,9.35,0,0,0-3.21-3.71,12.22,12.22,0,0,0-7.1-2.07,13.86,13.86,0,0,0-5.65,1.1,12.63,12.63,0,0,0-4.3,3.07,13.8,13.8,0,0,0-2.76,4.78,18.83,18.83,0,0,0-1,6.24,17.69,17.69,0,0,0,1.69,7.95,12.89,12.89,0,0,0,4.77,5.34,13.38,13.38,0,0,0,7.22,1.91,12.26,12.26,0,0,0,7.07-2.07,9.32,9.32,0,0,0,3.36-3.95v5.14q0,4.39-2.23,6.69t-6.68,2.29a22.1,22.1,0,0,1-4.78-.56,19.42,19.42,0,0,1-5.27-2.14,1.77,1.77,0,0,0-1.36-.28,2.14,2.14,0,0,0-1.13.69,2.71,2.71,0,0,0-.62,1.23,2.09,2.09,0,0,0,.12,1.35,2.74,2.74,0,0,0,1.1,1.16,19.82,19.82,0,0,0,5.75,2.32,28.38,28.38,0,0,0,6.56.75q6.9,0,10.52-3.57t3.61-10.68V366.14a2.58,2.58,0,0,0-2.83-2.89ZM190.62,384a8.37,8.37,0,0,1-3.14,3.7,8.94,8.94,0,0,1-4.87,1.29,8.37,8.37,0,0,1-6.69-2.89,11.55,11.55,0,0,1-2.47-7.79,13.31,13.31,0,0,1,1.12-5.71,8.53,8.53,0,0,1,3.17-3.67,8.94,8.94,0,0,1,4.87-1.29,8.31,8.31,0,0,1,6.66,2.86,11.62,11.62,0,0,1,2.45,7.81A13.69,13.69,0,0,1,190.62,384Z"/><path class="cls-1" d="M253.19,384.9a28.81,28.81,0,0,0,1.76-3.37,35,35,0,0,0,1.7-5.18,37.44,37.44,0,0,0,.94-5.94,2.48,2.48,0,0,0-.5-2,2.39,2.39,0,0,0-1.83-.69,2.41,2.41,0,0,0-1.75.6,3.09,3.09,0,0,0-.82,1.79,34.94,34.94,0,0,1-.66,4.65,32.47,32.47,0,0,1-1.13,4.08,19.39,19.39,0,0,1-1.12,2.47l-9.86-10.95a33,33,0,0,0,4.79-3.58,12.62,12.62,0,0,0,3-3.95,10.51,10.51,0,0,0,.91-4.34,8.33,8.33,0,0,0-2.83-6.65,10.77,10.77,0,0,0-7.35-2.45,13.24,13.24,0,0,0-5.93,1.25,9.48,9.48,0,0,0-3.93,3.49,9.62,9.62,0,0,0-1.38,5.18,11,11,0,0,0,1.23,5.06,25.06,25.06,0,0,0,3.8,5.12l-.88.56a32.28,32.28,0,0,0-4,2.95,18.89,18.89,0,0,0-2.89,3.11,11.58,11.58,0,0,0-1.72,3.42,13,13,0,0,0-.57,3.89,10.41,10.41,0,0,0,1.73,6,11.25,11.25,0,0,0,5,4,19.13,19.13,0,0,0,7.69,1.41,18.2,18.2,0,0,0,8-1.79,18.55,18.55,0,0,0,5.61-4.25l4,4.35a6.85,6.85,0,0,0,1.39,1.19,3.12,3.12,0,0,0,1.63.38,2.77,2.77,0,0,0,1.82-.57,1.88,1.88,0,0,0,.72-1.44,2.38,2.38,0,0,0-.85-1.76Zm-19-29.66a6,6,0,0,1,4.26-1.53,5.23,5.23,0,0,1,3.77,1.38,5,5,0,0,1,1.45,3.77,5.66,5.66,0,0,1-.76,2.85,10.2,10.2,0,0,1-2.44,2.77,42.51,42.51,0,0,1-3.64,2.6c-1-1.11-1.84-2.09-2.43-2.85a9.47,9.47,0,0,1-1.44-2.52,7.22,7.22,0,0,1-.41-2.41A5.29,5.29,0,0,1,234.17,355.24ZM243,388.78a13.24,13.24,0,0,1-6.22,1.42q-4.34,0-6.66-1.89a6.35,6.35,0,0,1-2.32-5.21,8.83,8.83,0,0,1,.69-3.58,9.71,9.71,0,0,1,2.23-3,28.58,28.58,0,0,1,4-3.11l.56-.37L247,385.47A13.4,13.4,0,0,1,243,388.78Z"/><path class="cls-1" d="M302,350H287a3,3,0,0,0-2.17.76,2.9,2.9,0,0,0-.78,2.19V391.7a3.1,3.1,0,0,0,.75,2.23,2.83,2.83,0,0,0,2.14.79,2.92,2.92,0,0,0,2.23-.79,3.23,3.23,0,0,0,.72-2.23V376.82H302q7.17,0,11-3.52t3.86-9.92q0-6.35-3.86-9.86T302,350Zm6.63,19.88c-1.66,1.48-4.11,2.23-7.38,2.23h-11.3V354.77h11.3c3.27,0,5.72.73,7.38,2.17s2.48,3.59,2.48,6.44A8.3,8.3,0,0,1,308.61,369.88Z"/><path class="cls-1" d="M346.32,363.25a2.81,2.81,0,0,0-2.1.73,2.89,2.89,0,0,0-.72,2.16V381a9.33,9.33,0,0,1-2.36,6.66A8,8,0,0,1,335,390.2q-3.39,0-5-1.86c-1-1.23-1.57-3.15-1.57-5.75V366.14a2.82,2.82,0,0,0-.75-2.16,2.91,2.91,0,0,0-2.13-.73,2.85,2.85,0,0,0-2.11.73,2.93,2.93,0,0,0-.72,2.16v16.45a16.93,16.93,0,0,0,1.19,6.79,8.42,8.42,0,0,0,3.68,4.08,12.58,12.58,0,0,0,6.18,1.38,11.27,11.27,0,0,0,6.56-1.92,10.21,10.21,0,0,0,3.24-4v2.8a3.05,3.05,0,0,0,.72,2.2,2.81,2.81,0,0,0,2.11.76c1.84,0,2.76-1,2.76-3V366.14a2.86,2.86,0,0,0-.75-2.16A3,3,0,0,0,346.32,363.25Z"/><path class="cls-1" d="M398.79,364.48a10.87,10.87,0,0,0-5.69-1.35,11.71,11.71,0,0,0-6.81,2,10.21,10.21,0,0,0-3.49,4.36,8.68,8.68,0,0,0-2.89-4.52,10,10,0,0,0-6.28-1.85,10.82,10.82,0,0,0-6.37,1.88,10.22,10.22,0,0,0-3.17,4v-2.86a2.93,2.93,0,0,0-.72-2.16,2.72,2.72,0,0,0-2-.73,2.6,2.6,0,0,0-2.83,2.89v25.62a2.94,2.94,0,0,0,.76,2.2,2.8,2.8,0,0,0,2.07.76c1.92,0,2.89-1,2.89-3V377.07a10.2,10.2,0,0,1,2.1-6.81,7.05,7.05,0,0,1,5.68-2.49q3.27,0,4.65,1.89t1.38,5.9v16.2a2.94,2.94,0,0,0,.76,2.2,2.89,2.89,0,0,0,2.13.76A2.78,2.78,0,0,0,383,394a3.06,3.06,0,0,0,.73-2.2V377.07a10.2,10.2,0,0,1,2.1-6.81,7.05,7.05,0,0,1,5.68-2.49q3.27,0,4.65,1.89t1.38,5.9v16.2a2.94,2.94,0,0,0,.76,2.2,2.89,2.89,0,0,0,2.13.76,2.8,2.8,0,0,0,2.07-.76,2.94,2.94,0,0,0,.75-2.2V375.31a17.68,17.68,0,0,0-1.12-6.81A8.4,8.4,0,0,0,398.79,364.48Z"/><path class="cls-1" d="M435.55,365a13,13,0,0,0-7.09-1.91,12,12,0,0,0-7.1,2.07,10,10,0,0,0-3.27,3.78v-2.84a2.93,2.93,0,0,0-.72-2.16,2.85,2.85,0,0,0-4.93,2.16v37a2.85,2.85,0,0,0,.76,2.13,2.76,2.76,0,0,0,2.07.76,2.64,2.64,0,0,0,2.89-2.89V389a10,10,0,0,0,3.26,3.74,11.94,11.94,0,0,0,7,2.07,13.06,13.06,0,0,0,7.12-1.92,12.45,12.45,0,0,0,4.71-5.52A20,20,0,0,0,442,379a19.4,19.4,0,0,0-1.7-8.44A12.85,12.85,0,0,0,435.55,365Zm-.5,20.13a8.26,8.26,0,0,1-7.91,5.15,8.16,8.16,0,0,1-6.6-2.92c-1.63-1.95-2.45-4.76-2.45-8.45a15.51,15.51,0,0,1,1.1-6.21,8.22,8.22,0,0,1,3.14-3.8,8.82,8.82,0,0,1,4.81-1.29,8.18,8.18,0,0,1,6.59,2.89c1.63,1.92,2.45,4.73,2.45,8.41A15.2,15.2,0,0,1,435.05,385.17Z"/><path class="cls-1" d="M452.13,363.38a2.74,2.74,0,0,0-2.07.78,3.22,3.22,0,0,0-.75,2.3v25.05a3.21,3.21,0,0,0,.75,2.26,2.65,2.65,0,0,0,2.07.82,2.72,2.72,0,0,0,2.17-.82,3.3,3.3,0,0,0,.72-2.26V366.46a3.22,3.22,0,0,0-.75-2.3A2.83,2.83,0,0,0,452.13,363.38Z"/><path class="cls-1" d="M452.13,349.94a3.91,3.91,0,0,0-2.67.85,3.13,3.13,0,0,0-1,2.48,3.19,3.19,0,0,0,1,2.42,3.79,3.79,0,0,0,2.67.91,3.71,3.71,0,0,0,2.73-.91,3.26,3.26,0,0,0,.92-2.42,3.21,3.21,0,0,0-.92-2.48A3.83,3.83,0,0,0,452.13,349.94Z"/><path class="cls-1" d="M486.29,364.45a12.49,12.49,0,0,0-6.09-1.32,12.82,12.82,0,0,0-6.81,1.82,9.93,9.93,0,0,0-3.61,4.15v-3a2.9,2.9,0,0,0-.73-2.16,2.72,2.72,0,0,0-2-.73,2.58,2.58,0,0,0-2.82,2.89v25.62a3,3,0,0,0,.75,2.2,2.82,2.82,0,0,0,2.07.76c1.93,0,2.89-1,2.89-3V376.94a9.16,9.16,0,0,1,2.42-6.68,8.56,8.56,0,0,1,6.44-2.49q3.45,0,5,1.89t1.57,6v16.14a3,3,0,0,0,.75,2.2,2.93,2.93,0,0,0,2.14.76,2.78,2.78,0,0,0,2.1-.76,3.06,3.06,0,0,0,.73-2.2V375.31a17,17,0,0,0-1.2-6.85A8.23,8.23,0,0,0,486.29,364.45Z"/><path class="cls-1" d="M525.16,363.25A2.91,2.91,0,0,0,523,364a2.86,2.86,0,0,0-.75,2.16v2.77a9.35,9.35,0,0,0-3.21-3.71,12.22,12.22,0,0,0-7.1-2.07,13.86,13.86,0,0,0-5.65,1.1,12.63,12.63,0,0,0-4.3,3.07,13.8,13.8,0,0,0-2.76,4.78,18.83,18.83,0,0,0-1,6.24,17.69,17.69,0,0,0,1.69,7.95,12.89,12.89,0,0,0,4.77,5.34,13.38,13.38,0,0,0,7.22,1.91,12.26,12.26,0,0,0,7.07-2.07,9.32,9.32,0,0,0,3.36-3.95v5.14q0,4.39-2.23,6.69t-6.68,2.29a22.1,22.1,0,0,1-4.78-.56,19.42,19.42,0,0,1-5.27-2.14,1.75,1.75,0,0,0-1.35-.28,2.07,2.07,0,0,0-1.13.69,2.63,2.63,0,0,0-.63,1.23,2.09,2.09,0,0,0,.12,1.35,2.74,2.74,0,0,0,1.1,1.16,19.82,19.82,0,0,0,5.75,2.32,28.38,28.38,0,0,0,6.56.75q6.9,0,10.52-3.57T528,391.89V366.14a2.58,2.58,0,0,0-2.83-2.89ZM521.24,384a8.37,8.37,0,0,1-3.14,3.7,8.94,8.94,0,0,1-4.87,1.29,8.37,8.37,0,0,1-6.69-2.89,11.55,11.55,0,0,1-2.47-7.79,13.16,13.16,0,0,1,1.13-5.71,8.44,8.44,0,0,1,3.16-3.67,8.94,8.94,0,0,1,4.87-1.29,8.31,8.31,0,0,1,6.66,2.86,11.62,11.62,0,0,1,2.45,7.81A13.69,13.69,0,0,1,521.24,384Z"/><path class="cls-1" d="M568.25,377.64l-5.85-1.2a6.45,6.45,0,0,1-3.29-1.57,3.68,3.68,0,0,1-1-2.7,4.12,4.12,0,0,1,1.73-3.45,8.33,8.33,0,0,1,5.12-1.32,14.39,14.39,0,0,1,3.8.53,12.52,12.52,0,0,1,3.73,1.79,2.46,2.46,0,0,0,1.51.35,1.94,1.94,0,0,0,1.13-.54,2.22,2.22,0,0,0,.59-1.1,2.26,2.26,0,0,0-.06-1.31,2,2,0,0,0-1-1.1,14.5,14.5,0,0,0-4.49-2.17,18.69,18.69,0,0,0-5.24-.72,16.77,16.77,0,0,0-6.35,1.13,9.76,9.76,0,0,0-4.3,3.23,8.19,8.19,0,0,0-1.54,4.93,7.2,7.2,0,0,0,2,5.24,11.57,11.57,0,0,0,5.87,2.93l5.84,1.19a8.09,8.09,0,0,1,3.61,1.48A3.32,3.32,0,0,1,571.2,386a3.89,3.89,0,0,1-1.76,3.33,8.93,8.93,0,0,1-5.22,1.26,19.33,19.33,0,0,1-4.55-.56,19,19,0,0,1-4.74-1.95,2.15,2.15,0,0,0-1.41-.35,1.75,1.75,0,0,0-1.1.6,2.21,2.21,0,0,0-.53,1.16,2.45,2.45,0,0,0,1.16,2.42,16.59,16.59,0,0,0,5.36,2.29,25.3,25.3,0,0,0,5.69.66q5.65,0,9-2.48a7.94,7.94,0,0,0,3.36-6.75,6.71,6.71,0,0,0-2.07-5.18A12.86,12.86,0,0,0,568.25,377.64Z"/><path class="cls-1" d="M586.7,349.94a3.91,3.91,0,0,0-2.67.85,3.13,3.13,0,0,0-1,2.48,3.19,3.19,0,0,0,1,2.42,4.47,4.47,0,0,0,5.41,0,3.3,3.3,0,0,0,.91-2.42,3.24,3.24,0,0,0-.91-2.48A3.88,3.88,0,0,0,586.7,349.94Z"/><path class="cls-1" d="M586.7,363.38a2.75,2.75,0,0,0-2.07.78,3.22,3.22,0,0,0-.75,2.3v25.05a3.21,3.21,0,0,0,.75,2.26,2.67,2.67,0,0,0,2.07.82,2.72,2.72,0,0,0,2.17-.82,3.3,3.3,0,0,0,.72-2.26V366.46a3.22,3.22,0,0,0-.75-2.3A2.83,2.83,0,0,0,586.7,363.38Z"/><path class="cls-1" d="M620.87,364.45a12.49,12.49,0,0,0-6.09-1.32A12.86,12.86,0,0,0,608,365a10,10,0,0,0-3.61,4.15v-3a2.93,2.93,0,0,0-.72-2.16,2.72,2.72,0,0,0-2-.73,2.6,2.6,0,0,0-2.83,2.89v25.62a2.94,2.94,0,0,0,.76,2.2,2.8,2.8,0,0,0,2.07.76c1.92,0,2.89-1,2.89-3V376.94a9.16,9.16,0,0,1,2.41-6.68,8.58,8.58,0,0,1,6.44-2.49q3.45,0,5,1.89c1,1.25,1.57,3.24,1.57,6v16.14a3,3,0,0,0,.75,2.2,2.89,2.89,0,0,0,2.14.76,2.8,2.8,0,0,0,2.1-.76,3.05,3.05,0,0,0,.72-2.2V375.31a17.14,17.14,0,0,0-1.19-6.85A8.28,8.28,0,0,0,620.87,364.45Z"/><path class="cls-1" d="M641.18,370.63a8.14,8.14,0,0,1,3-2.17,10.61,10.61,0,0,1,4.11-.75,10.86,10.86,0,0,1,3.18.51,10,10,0,0,1,3.17,1.63,2.55,2.55,0,0,0,1.54.44,1.83,1.83,0,0,0,1.19-.54,2.39,2.39,0,0,0,.63-1.16,2.8,2.8,0,0,0,0-1.35,2.2,2.2,0,0,0-.88-1.16,13.43,13.43,0,0,0-4.52-2.26,17.18,17.18,0,0,0-4.65-.69,17.58,17.58,0,0,0-6.31,1.06,12.71,12.71,0,0,0-4.74,3.11,13.94,13.94,0,0,0-3,4.93,19.33,19.33,0,0,0-1,6.53,18.7,18.7,0,0,0,1.82,8.51,13.16,13.16,0,0,0,5.21,5.59,15.66,15.66,0,0,0,8,2,16.43,16.43,0,0,0,4.58-.69,13.38,13.38,0,0,0,4.4-2.2,2.08,2.08,0,0,0,.91-1.13,2.61,2.61,0,0,0,.09-1.35,2.1,2.1,0,0,0-.59-1.13,1.93,1.93,0,0,0-1.17-.56,2.25,2.25,0,0,0-1.5.4,10.16,10.16,0,0,1-3.21,1.6,11,11,0,0,1-3.14.48,8.68,8.68,0,0,1-7.09-3.05q-2.51-3-2.51-8.38a16.22,16.22,0,0,1,.63-4.75A9.22,9.22,0,0,1,641.18,370.63Z"/><path class="cls-1" d="M689.09,379.74a2,2,0,0,0,.6-1.54,20.24,20.24,0,0,0-.91-6.31,13.07,13.07,0,0,0-2.67-4.74,11.64,11.64,0,0,0-4.24-3,14.29,14.29,0,0,0-5.55-1,14.72,14.72,0,0,0-7.7,2,14.06,14.06,0,0,0-5.27,5.59,17.39,17.39,0,0,0-1.92,8.35,17.13,17.13,0,0,0,2,8.38,13.37,13.37,0,0,0,5.49,5.46,17.65,17.65,0,0,0,8.51,1.92,20.91,20.91,0,0,0,5.5-.78,16.13,16.13,0,0,0,4.92-2.23,3,3,0,0,0,1.2-1.32,2.46,2.46,0,0,0,.19-1.41,2,2,0,0,0-.63-1.13,1.9,1.9,0,0,0-1.29-.51,3.12,3.12,0,0,0-1.72.54,12.62,12.62,0,0,1-4,1.82,18,18,0,0,1-4.12.5c-3.39,0-6-1-7.79-2.89-1.56-1.67-2.4-4.09-2.61-7.16h20.39A2.48,2.48,0,0,0,689.09,379.74Zm-17.8-11.05a9.05,9.05,0,0,1,5.15-1.42,8.38,8.38,0,0,1,4.61,1.19,7.5,7.5,0,0,1,2.83,3.49,13.58,13.58,0,0,1,.9,4.68H667.07a13.49,13.49,0,0,1,.95-4A9,9,0,0,1,671.29,368.69Z"/><path class="cls-1" d="M739.36,389.31h-7.28V352a2.22,2.22,0,0,0-.69-1.82,2.49,2.49,0,0,0-1.64-.56,4.4,4.4,0,0,0-1.66.34,12.61,12.61,0,0,0-1.79.91l-8.67,5.65a2.45,2.45,0,0,0-1.22,1.29,2.55,2.55,0,0,0-.09,1.54,2.5,2.5,0,0,0,.75,1.28,2.24,2.24,0,0,0,1.35.63,2.48,2.48,0,0,0,1.67-.47l6.15-4v32.53h-7.91a2.7,2.7,0,0,0-1.89.63,2.34,2.34,0,0,0-.69,1.82,2.45,2.45,0,0,0,.69,1.82,2.56,2.56,0,0,0,1.89.7h21a2.6,2.6,0,0,0,1.92-.66,2.52,2.52,0,0,0,.66-1.86,2.4,2.4,0,0,0-.66-1.82A2.68,2.68,0,0,0,739.36,389.31Z"/><path class="cls-1" d="M772.55,352a15.48,15.48,0,0,0-9-2.54,14.49,14.49,0,0,0-7.35,1.85,13.21,13.21,0,0,0-5,5.12,16.19,16.19,0,0,0-.1,14.72,13.18,13.18,0,0,0,4.71,5,13.83,13.83,0,0,0,12.88.44,11.51,11.51,0,0,0,4.36-3.93,12.27,12.27,0,0,0,1.45-3.13v2.72a28.29,28.29,0,0,1-1.45,9.7,12.22,12.22,0,0,1-4.2,5.91,11.27,11.27,0,0,1-6.72,2,13.32,13.32,0,0,1-4.4-.76,14.65,14.65,0,0,1-4.34-2.45,2.45,2.45,0,0,0-1.62-.56,2,2,0,0,0-1.29.59,2.67,2.67,0,0,0-.72,1.26,2.87,2.87,0,0,0,0,1.51,2.3,2.3,0,0,0,.92,1.28,16.93,16.93,0,0,0,5.43,3.08,17.52,17.52,0,0,0,5.87,1.07,17.76,17.76,0,0,0,7.63-1.57,15.61,15.61,0,0,0,5.71-4.58,21.13,21.13,0,0,0,3.59-7.42,38.25,38.25,0,0,0,1.22-10.17,31.51,31.51,0,0,0-2-11.71A15.88,15.88,0,0,0,772.55,352Zm-.72,16.55a8.55,8.55,0,0,1-3.17,3.36,9.64,9.64,0,0,1-9.39,0,8.76,8.76,0,0,1-3.17-3.36,10.91,10.91,0,0,1,0-9.83,8.6,8.6,0,0,1,3.17-3.3,9.86,9.86,0,0,1,9.39,0,8.39,8.39,0,0,1,3.17,3.3,11.25,11.25,0,0,1,0,9.83Z"/><path class="cls-1" d="M808.83,371.33a9.9,9.9,0,0,0,6.2-5.53,11.88,11.88,0,0,0,1-4.93,11.13,11.13,0,0,0-1.63-6.12,10.5,10.5,0,0,0-4.75-3.93,18.23,18.23,0,0,0-7.44-1.38,22,22,0,0,0-6.94,1.1,19.26,19.26,0,0,0-5.93,3.11,2.82,2.82,0,0,0-1.13,1.44,2.72,2.72,0,0,0-.06,1.54,2.42,2.42,0,0,0,.72,1.22,1.91,1.91,0,0,0,1.35.53,2.58,2.58,0,0,0,1.63-.53,17.46,17.46,0,0,1,4.84-2.61,16.25,16.25,0,0,1,5.09-.78,9.85,9.85,0,0,1,6.34,1.79,6.3,6.3,0,0,1,2.19,5.18,7.82,7.82,0,0,1-1.1,4.27,7.26,7.26,0,0,1-3,2.73,10.44,10.44,0,0,1-4.71,1h-3.9a2.92,2.92,0,0,0-2,.62,2.72,2.72,0,0,0,0,3.62,2.83,2.83,0,0,0,2,.66H802c3.14,0,5.53.63,7.16,1.91a6.78,6.78,0,0,1,2.45,5.68,8.12,8.12,0,0,1-1.1,4.31,6.82,6.82,0,0,1-3.23,2.7,13.26,13.26,0,0,1-5.22.91,19.34,19.34,0,0,1-5.55-.79,20.4,20.4,0,0,1-5.37-2.54,2.81,2.81,0,0,0-1.76-.47,2.44,2.44,0,0,0-1.38.59,2.3,2.3,0,0,0-.73,1.23,2.7,2.7,0,0,0,.16,1.54,3.23,3.23,0,0,0,1.2,1.44,18.71,18.71,0,0,0,6.34,3,26.91,26.91,0,0,0,7.28,1,19.59,19.59,0,0,0,8-1.51A11.65,11.65,0,0,0,815.5,389a12,12,0,0,0,1.86-6.69,11.05,11.05,0,0,0-2.55-7.44A11.23,11.23,0,0,0,808.83,371.33Z"/><path class="cls-1" d="M855.38,389.94a2.68,2.68,0,0,0-1.92-.63h-19l11.44-12.05a38.28,38.28,0,0,0,4.43-5.47,23.76,23.76,0,0,0,2.61-5.18,15.62,15.62,0,0,0,.88-5.18,12.14,12.14,0,0,0-1.64-6.5,10.35,10.35,0,0,0-4.74-4.08,18.4,18.4,0,0,0-7.63-1.41,21.64,21.64,0,0,0-7,1.13,19.51,19.51,0,0,0-6,3.14,2.62,2.62,0,0,0-1.07,1.38,2.54,2.54,0,0,0,0,1.54,3.12,3.12,0,0,0,.75,1.26,2,2,0,0,0,1.29.59,2.49,2.49,0,0,0,1.63-.57,17.37,17.37,0,0,1,4.74-2.6,15.31,15.31,0,0,1,5.06-.85c2.85,0,5,.64,6.5,1.92a6.91,6.91,0,0,1,2.23,5.56,12.92,12.92,0,0,1-1.38,5.71,25.89,25.89,0,0,1-4.52,6.15l-13.76,14.76a5.94,5.94,0,0,0-1.13,1.51,3.33,3.33,0,0,0-.37,1.51,2.67,2.67,0,0,0,.72,2,3,3,0,0,0,2.23.73h23.67a2.6,2.6,0,0,0,1.92-.66,2.52,2.52,0,0,0,.66-1.86A2.4,2.4,0,0,0,855.38,389.94Z"/></svg>